# xmcd
#
# Track frame offsets:
#	150
#	20076
#	42856
#	54403
#	68577
#	77618
#	88059
#	113871
#	130300
#	139116
#	151201
#	161590
#	172615
#	186124
#
# Disc length: 2673 seconds
#
# Revision: 6
# Processed by: cddbd v1.5.2PL0 Copyright (c) Steve Scherf et al.
# Submitted via: EasyCDDAExtractor 8.0.2.1
#
DISCID=ac0a6f0e
DTITLE=Eric Clapton and the Yardbirds - At Their Best CD 2 
DYEAR=2000
DGENRE=Blues
TTITLE0=I'm a Man
TTITLE1=Five Long Years
TTITLE2=Got Love If You Want It
TTITLE3=Highway 69
TTITLE4=I Ain't Got You
TTITLE5=Let It Rock
TTITLE6=Take It Easy Baby
TTITLE7=My Little Cabin
TTITLE8=Talkin' About You
TTITLE9=Pounds And Stomps
TTITLE10=I Wish You Would
TTITLE11=Paff...Bum
TTITLE12=Like Jimmy Reed Again
TTITLE13=Out On The Water Coast
EXTD=ID3G:   0
EXTT0=
EXTT1=
EXTT2=
EXTT3=
EXTT4=
EXTT5=
EXTT6=
EXTT7=
EXTT8=
EXTT9=
EXTT10=
EXTT11=
EXTT12=
EXTT13=
PLAYORDER=
